<?xml version="1.0" standalone="no"?>
<!DOCTYPE svg PUBLIC "-//W3C//DTD SVG 20010904//EN"
 "http://www.w3.org/TR/2001/REC-SVG-20010904/DTD/svg10.dtd">
<svg version="1.0" xmlns="http://www.w3.org/2000/svg"
 width="875.000000pt" height="875.000000pt" viewBox="0 0 875.000000 875.000000"
 preserveAspectRatio="xMidYMid meet">
<metadata>
Created by potrace 1.11, written by Peter Selinger 2001-2013
</metadata>
<g transform="translate(0.000000,875.000000) scale(0.100000,-0.100000)"
fill="#000000" stroke="none">
<path d="M1082 8131 c-95 -24 -221 -87 -300 -151 -110 -90 -209 -244 -247
-385 -40 -149 -27 -349 32 -489 94 -225 308 -404 538 -450 l60 -13 3 -2051 2
-2052 -27 0 c-16 0 -71 -15 -124 -33 -290 -100 -490 -366 -506 -672 -15 -276
106 -520 334 -671 238 -159 546 -170 800 -29 133 74 287 257 330 393 l17 52
259 0 c219 0 258 -2 248 -14 -11 -13 -6 -46 8 -46 3 0 553 -92 1221 -205 961
-162 1217 -202 1226 -192 19 19 48 227 34 241 -7 7 -464 49 -1213 112 l-1202
102 1260 1 c1036 0 1278 -2 1360 -14 87 -12 102 -12 116 1 8 8 28 14 42 14
l27 0 0 -351 0 -352 -47 7 c-27 3 -774 83 -1662 177 -1470 155 -1615 169
-1630 155 -13 -14 -14 -18 -1 -31 11 -10 472 -80 1645 -250 897 -129 1645
-237 1663 -240 l32 -6 0 -324 0 -325 1680 0 1680 0 0 1748 0 1747 -486 493
-486 492 -349 0 -349 0 0 1063 0 1063 69 17 c196 51 381 197 475 377 64 121
81 197 81 355 0 119 -4 151 -23 215 -67 214 -198 367 -397 466 -109 54 -198
74 -330 74 -133 0 -221 -20 -333 -75 -224 -111 -374 -311 -416 -557 l-7 -38
-2083 0 -2083 0 -13 63 c-56 285 -273 515 -557 587 -99 26 -268 26 -371 1z
m5198 -1102 l13 -31 -1086 -1086 -1087 -1087 -1095 1095 c-602 602 -1095 1100
-1095 1105 0 35 -17 35 2181 35 l2157 0 12 -31z m-3558 -1406 l1098 -1098
-1056 -1056 -1057 -1057 -58 35 -59 35 0 2113 c0 1161 3 2115 7 2118 3 4 11 7
17 7 6 0 505 -494 1108 -1097z m3928 -15 l0 -1088 -635 0 -635 0 0 -477 0
-478 -482 483 -483 482 1094 1094 c1029 1029 1096 1094 1118 1083 l23 -10 0
-1089z m-1270 -3045 c0 -222 -1 -403 -2 -403 -2 0 -705 27 -1563 60 -858 33
-1580 60 -1605 60 l-45 0 135 135 c122 122 138 135 170 135 19 0 473 -41 1009
-90 536 -50 990 -90 1008 -90 27 0 35 5 43 26 15 38 13 154 -2 159 -7 2 -463
18 -1013 35 -550 17 -1000 32 -1002 33 -1 2 87 92 196 201 l198 198 949 14
c522 8 955 17 962 19 8 3 12 30 12 90 0 70 -3 87 -17 92 -9 3 -417 -24 -907
-61 -490 -36 -895 -66 -901 -66 -5 0 40 50 100 110 75 75 117 110 132 110 17
0 23 6 23 22 0 17 118 141 427 450 l428 428 632 -632 633 -633 0 -402z m1867
712 c12 -38 31 -102 42 -141 l21 -70 87 -35 c48 -19 96 -38 107 -42 17 -7 48
6 146 62 l125 71 119 -119 118 -118 -72 -127 -72 -127 37 -87 c20 -48 40 -96
44 -107 7 -16 40 -29 150 -59 l141 -39 0 -167 0 -167 -77 -22 c-225 -64 -210
-58 -223 -99 -7 -20 -26 -67 -42 -104 l-30 -66 71 -128 72 -128 -118 -118
-118 -118 -128 71 -129 71 -66 -30 c-37 -16 -84 -35 -104 -41 -40 -13 -36 -5
-99 -224 l-22 -77 -166 2 -166 3 -40 139 c-31 107 -45 141 -60 147 -11 4 -59
24 -107 44 l-87 36 -128 -71 -127 -71 -117 118 -118 118 70 124 c38 68 69 129
69 135 0 7 -11 34 -24 62 -12 27 -31 70 -41 96 l-18 48 -86 25 c-47 15 -111
34 -141 43 l-55 17 0 165 0 165 139 41 c77 22 143 47 148 55 4 8 19 43 33 79
15 36 32 77 38 91 9 24 3 40 -56 147 -37 67 -67 127 -67 134 0 7 51 64 113
125 l112 113 128 -71 c74 -41 135 -69 145 -66 9 3 57 23 107 45 l90 40 36 124
c19 68 38 132 42 141 6 16 23 17 169 15 l163 -3 22 -70z m-5093 -1039 c9 -12
300 -37 1436 -123 l1425 -108 -1285 -3 c-786 -1 -1324 1 -1385 7 -63 6 -103 7
-109 1 -6 -6 -62 -10 -126 -10 l-115 0 -13 42 -13 41 83 84 c45 46 84 83 87
83 2 0 9 -7 15 -14z"/>
<path d="M4031 3461 c-9 -6 -12 -18 -7 -36 6 -23 10 -26 34 -20 35 9 34 8 26
39 -6 26 -27 33 -53 17z"/>
<path d="M3823 3444 c-14 -6 -1 -59 15 -58 7 1 19 2 28 3 24 2 14 55 -11 58
-11 1 -25 0 -32 -3z"/>
<path d="M3610 3402 c0 -36 5 -40 35 -34 20 3 25 10 25 33 0 26 -4 29 -30 29
-26 0 -30 -4 -30 -28z"/>
<path d="M3407 3403 c-8 -8 -9 -47 -2 -55 3 -3 17 -3 30 0 20 3 25 10 25 33 0
24 -4 29 -23 29 -13 0 -27 -3 -30 -7z"/>
<path d="M4130 2885 c-531 -24 -983 -45 -1005 -46 -41 -4 -59 -29 -37 -51 15
-15 2192 -120 2209 -107 17 15 19 219 1 237 -17 17 -69 15 -1168 -33z"/>
<path d="M6925 2592 c-120 -42 -214 -126 -268 -240 -27 -57 -32 -81 -35 -162
-3 -78 0 -106 18 -159 106 -315 501 -409 735 -176 229 230 143 621 -161 731
-81 30 -212 33 -289 6z"/>
<path d="M2468 751 c-4 -25 0 -31 19 -36 31 -7 43 1 43 29 0 16 -7 26 -22 30
-34 9 -35 8 -40 -23z"/>
<path d="M2676 734 c-12 -32 -6 -44 23 -44 30 0 50 28 36 50 -10 16 -52 12
-59 -6z"/>
<path d="M2880 690 c0 -27 3 -30 30 -30 27 0 30 3 30 30 0 27 -3 30 -30 30
-27 0 -30 -3 -30 -30z"/>
<path d="M3094 684 c-2 -8 -6 -21 -9 -29 -3 -9 4 -17 20 -21 31 -8 45 2 45 30
0 17 -7 25 -26 29 -16 3 -27 0 -30 -9z"/>
<path d="M3296 644 c-8 -31 -8 -30 25 -39 23 -6 27 -3 33 21 5 18 3 30 -6 35
-25 16 -46 9 -52 -17z"/>
<path d="M1667 654 c-4 -4 -7 -17 -7 -30 0 -15 7 -23 25 -26 13 -3 27 -3 30 0
9 9 5 52 -4 52 -5 0 -16 2 -23 5 -8 3 -17 2 -21 -1z"/>
<path d="M3500 610 c0 -27 3 -30 30 -30 27 0 30 3 30 30 0 27 -3 30 -30 30
-27 0 -30 -3 -30 -30z"/>
<path d="M1870 600 c0 -25 4 -30 24 -30 29 0 47 37 25 51 -30 19 -49 10 -49
-21z"/>
<path d="M3708 585 c-6 -30 -2 -35 34 -35 24 0 28 4 28 30 0 26 -3 30 -29 30
-23 0 -30 -5 -33 -25z"/>
<path d="M2077 578 c-8 -28 -1 -38 27 -38 17 0 25 7 28 25 6 29 2 35 -28 35
-14 0 -24 -8 -27 -22z"/>
<path d="M3915 563 c-4 -17 -2 -29 7 -34 25 -16 46 -9 52 17 8 31 9 29 -25 38
-23 5 -28 2 -34 -21z"/>
<path d="M2287 563 c-15 -14 -6 -41 15 -46 29 -8 38 -1 38 29 0 18 -5 24 -23
24 -13 0 -27 -3 -30 -7z"/>
<path d="M4127 554 c-4 -4 -7 -17 -7 -30 0 -15 7 -23 26 -27 27 -5 38 8 32 40
-3 18 -38 30 -51 17z"/>
<path d="M2490 521 c0 -26 4 -31 24 -31 16 0 27 7 31 21 8 25 7 25 -28 34 -25
7 -27 5 -27 -24z"/>
<path d="M4328 506 c-6 -32 -2 -36 34 -36 26 0 29 3 26 28 -2 21 -9 28 -29 30
-21 3 -27 -2 -31 -22z"/>
<path d="M2698 495 c-6 -29 -2 -35 28 -35 15 0 23 7 26 25 6 29 2 35 -28 35
-15 0 -23 -7 -26 -25z"/>
<path d="M2905 492 c-13 -14 -3 -51 15 -57 27 -8 40 1 40 29 0 17 -7 25 -25
28 -13 3 -27 3 -30 0z"/>
<path d="M3110 441 c0 -23 5 -30 25 -33 29 -6 35 -2 35 28 0 14 -8 24 -22 28
-36 9 -38 8 -38 -23z"/>
<path d="M3316 424 c-12 -32 -6 -44 23 -44 21 0 30 6 34 22 3 12 4 25 1 30 -9
14 -52 9 -58 -8z"/>
<path d="M3520 380 c0 -27 3 -30 30 -30 27 0 30 3 30 30 0 27 -3 30 -30 30
-27 0 -30 -3 -30 -30z"/>
</g>
</svg>
